# xmcd CD database file
#
# Track frame offsets:
#	150
#	15437
#	31082
#	46397
#	60417
#	76542
#	90187
#	102312
#	117182
#	131020
#	142957
#	158517
#	181327
#	201217
#	218910
#	235450
#	255310
#	270590
#	287920
#	304115
#	323995
#
# Disc length: 4705 seconds
#
# Revision: 0
# Processed by: cddbd v1.5.1PL0 Copyright (c) Steve Scherf et al.
# Submitted via: CDex 1.51
#
DISCID=0f125f15
DTITLE=Benny Goodman - Benny Goodman Trio Quartet Quintet/Together Again - The Beny Goodman Quartet
DYEAR=2001
DGENRE=Jazz
TTITLE0=Whispering
TTITLE1=The Man I Love
TTITLE2=Opus 1/2
TTITLE3=Sweet Georgia Brown
TTITLE4=Body and Soul
TTITLE5=Oh, Lady be Good
TTITLE6=Dinah
TTITLE7=Sweet Sue - Just You
TTITLE8=Smiles
TTITLE9=Runnin' Wild
TTITLE10=Tiger Rag
TTITLE11=Pick-A-Rib
TTITLE12=Seven Come Eleven
TTITLE13=Say It Isn't So
TTITLE14=I've Found a New Baby
TTITLE15=Somebody Loves Me
TTITLE16=Runnin' Wild
TTITLE17=It Got It Bad And That Ain't Good
TTITLE18=Dearest
TTITLE19=I'll Get By
TTITLE20=Four Once More
EXTD=YEAR: 2001
EXTT0=
EXTT1=
EXTT2=
EXTT3=
EXTT4=
EXTT5=
EXTT6=
EXTT7=
EXTT8=
EXTT9=
EXTT10=
EXTT11=
EXTT12=
EXTT13=
EXTT14=
EXTT15=
EXTT16=
EXTT17=
EXTT18=
EXTT19=
EXTT20=
PLAYORDER=
